<svg xmlns="http://www.w3.org/2000/svg" width="244" height="196" fill="none"><path fill="#F6F0FF" d="M135 54.5C135 24.4 159.401 0 189.5 0 219.6 0 244 24.4 244 54.5S219.6 109 189.5 109a54.259 54.259 0 0 1-26.204-6.704c-3.767 2.68-12.958 8.027-22.037 4.175l10.929-12.25A54.345 54.345 0 0 1 135 54.5Z"/><path fill="#6E35C1" d="M234.418 54.5c0-28.476-21.724-51.847-49.418-54.286A54.581 54.581 0 0 1 189.791 0C219.73 0 244 24.4 244 54.5S219.73 109 189.791 109a54.42 54.42 0 0 1-4.783-.215c27.69-2.442 49.41-25.812 49.41-54.285Z"/><path stroke="#F5F5FA" stroke-width="4" d="M119 123.5C119 93.4 94.6 69 64.5 69S10 93.4 10 123.5c0 30.099 24.4 54.5 54.5 54.5a54.258 54.258 0 0 0 26.204-6.704c3.767 2.68 12.958 8.027 22.037 4.175l-10.929-12.251A54.344 54.344 0 0 0 119 123.5Z"/><path fill="#8083A3" d="M19.582 123.5c0-28.476 21.724-51.847 49.418-54.286A54.57 54.57 0 0 0 64.209 69C34.27 69 10 93.4 10 123.5S34.27 178 64.209 178c1.612 0 3.207-.076 4.783-.215-27.69-2.442-49.41-25.812-49.41-54.285Z" opacity=".1"/><path fill="#2F2E41" d="M202.915 36.422c-3.617-6.114-10.775-6.399-10.775-6.399s-6.974-.892-11.448 8.42c-4.17 8.678-9.925 17.058-.926 19.09l1.625-5.06 1.007 5.436a35.22 35.22 0 0 0 3.85.066c9.637-.311 18.815.091 18.519-3.368-.393-4.597 1.629-12.303-1.852-18.185ZM179.447 89.156c-.105.66-.258 1.313-.457 1.952-.224.626-.569 1.204-.774 1.836-.653 2.015.252 4.261 1.697 5.816a9.58 9.58 0 0 0 4.66 2.748c1.316.279 2.658.419 4.004.418 3.721.125 7.538.237 11.065-.951 1.114-.384 2.19-.87 3.214-1.45.324-.153.609-.376.835-.652a2.27 2.27 0 0 0 .301-1.338c-.008-1.567-.328-3.126-.252-4.69.042-.867.205-1.734.125-2.598a4.803 4.803 0 0 0-3.687-4.127c-1.001-.213-2.038-.097-3.057 0-2.643.253-5.298.37-7.954.354-2.713-.018-5.41-.429-8.11-.472-.798-.013-.782.232-1.036 1a18.459 18.459 0 0 0-.574 2.154Z"/><path fill="#A0616A" d="M187.216 51.231c-.129.678-.269 1.382-.676 1.94-.468.64-1.231 1.007-1.735 1.621-.758.924-.802 2.224-.805 3.42-.003 1.102.02 2.278.633 3.192a5.557 5.557 0 0 0 1.596 1.41c2.3 1.553 4.785 3.134 7.558 3.185 1.149.021 2.381-.276 3.137-1.143.327-.408.583-.866.76-1.358a18.064 18.064 0 0 0 1.274-5.488 6.46 6.46 0 0 0-.243-2.637c-.337-.94-1.018-1.715-1.468-2.607a5.817 5.817 0 0 1-.558-3.435.374.374 0 0 0-.019-.25.364.364 0 0 0-.299-.12l-5.498-.397a11.946 11.946 0 0 1-1.527-.175c-.297-.06-1.079-.482-1.362-.37-.523.208-.661 2.65-.768 3.212Z"/><path fill="#000" d="M187.216 51.231c-.129.678-.269 1.382-.676 1.94-.468.64-1.231 1.007-1.735 1.621-.758.924-.802 2.224-.805 3.42-.003 1.102.02 2.278.633 3.192a5.557 5.557 0 0 0 1.596 1.41c2.3 1.553 4.785 3.134 7.558 3.185 1.149.021 2.381-.276 3.137-1.143.327-.408.583-.866.76-1.358a18.064 18.064 0 0 0 1.274-5.488 6.46 6.46 0 0 0-.243-2.637c-.337-.94-1.018-1.715-1.468-2.607a5.817 5.817 0 0 1-.558-3.435.368.368 0 0 0-.019-.25.364.364 0 0 0-.299-.12l-5.498-.397a11.946 11.946 0 0 1-1.527-.175c-.297-.06-1.079-.482-1.362-.37-.523.208-.661 2.65-.768 3.212Z" opacity=".1"/><circle cx="192" cy="44" r="8" fill="#A0616A"/><path fill="#fff" d="M187.86 61.443c.391.467.863.855 1.391 1.145.55.234 1.141.35 1.737.34 1.427.042 2.974-.228 3.966-1.284 1.28-1.362 1.238-3.56 2.241-5.149.08-.144.191-.268.323-.364a1.02 1.02 0 0 1 .549-.13c1.267-.012 2.371.834 3.366 1.64.469.333.871.755 1.185 1.244.197.396.332.82.4 1.26.494 2.485.654 5.026.813 7.557.087 1.398.175 2.797.169 4.198-.022 4.616-1.063 9.154-2.099 13.645-.134.579-.316 1.225-.827 1.503a1.993 1.993 0 0 1-.722.181c-2.966.359-5.939.718-8.925.766a42.85 42.85 0 0 1-3.495-.088 1.834 1.834 0 0 1-.589-.105 1.68 1.68 0 0 1-.642-.562c-1.615-2.097-1.711-4.996-1.7-7.672.025-6.545.252-13.085.681-19.619.035-.54.043-1.194-.334-1.619a20.117 20.117 0 0 0 2.512 3.113Z"/><path fill="#fff" d="M186.717 51.732c-.278.5-2.329 1.744-2.726 2.159-2.213 2.318-6.252 2.23-8.276 4.714-.712.873-1.082 1.971-1.354 3.063-.385 1.543-.59 3.226.054 4.682.621 1.4 1.927 2.368 2.813 3.619.974 1.373 1.411 3.041 1.831 4.669.31 1.201.622 2.432.501 3.667-.137 1.404-.821 2.69-1.224 4.041-.404 1.352-.473 2.963.46 4.025.685.781 1.761 1.09 2.788 1.265a32.23 32.23 0 0 0 3.975.344c1.175.051 2.47.061 3.373-.687.713-.59 1.023-1.55 1.063-2.47.04-.922-.153-1.835-.274-2.75-.125-.947-.173-1.903-.214-2.859a177.45 177.45 0 0 1-.074-12.865c.067-.892.023-1.788-.131-2.67-.252-1.148-.876-2.174-1.397-3.228a12.16 12.16 0 0 1-1.363-6.454c.158-2.297 1.166-4.047.175-2.265ZM197.788 52.674c.415.426 1.825.566 2.353.84a8.243 8.243 0 0 0 1.546.533 20.091 20.091 0 0 1 5.433 2.487c.349.203.657.468.909.782.266.431.437.914.503 1.415.258 1.277.518 2.569.46 3.87-.062 1.38-.479 2.718-.893 4.037l-1.546 4.93c-1.155 3.68-2.316 7.395-2.641 11.237-.18 2.129-.1 4.272.238 6.382a.755.755 0 0 1-.078.618.612.612 0 0 1-.379.173c-.746.117-1.469-.262-2.145-.598A23.804 23.804 0 0 0 195 87.244a15.167 15.167 0 0 0 2.034-4.18c.26-.946.465-1.906.614-2.875l.72-4.149c.292-1.516.498-3.048.617-4.587.054-.578.02-1.16-.1-1.728a8.391 8.391 0 0 0-.657-1.559c-1.186-2.459-1.742-5.265-1.276-7.953.204-1.177.601-2.355.436-3.537-.159-1.137.006-2.02-.287-3.146-1.201-4.62-.094-1.656.687-.856Z"/><path fill="#fff" d="M175.933 63.33c-.544 1.135-1.454 2.102-1.764 3.323a7.337 7.337 0 0 0-.154 1.736c-.053.879.033 1.76.257 2.611.173.538.454 1.035.656 1.563.283.737.409 1.525.37 2.314-.055 1.094-.424 2.155-.453 3.249-.046 1.72.746 3.338 1.519 4.874a3.575 3.575 0 0 1 2.197-2.064c1-.328 2.092-.197 2.987.359.177-.219.261-.498.233-.779.057-1.996.112-3.992.166-5.988.083-3.088.163-6.217-.544-9.222-.319-1.357-.816-2.71-1.726-3.762-.479-.554-2.106-2.014-2.893-1.393-.354.28-.271 1.04-.328 1.424a6.05 6.05 0 0 1-.523 1.755ZM208.707 59.918c.225.822.321 1.673.286 2.524.011 1.734-.013 3.468-.07 5.202a9.566 9.566 0 0 1-.344 2.633c-.18.558-.459 1.081-.645 1.637-.558 1.667-.253 3.475-.205 5.23a5.87 5.87 0 0 1-.147 1.69c-.294 1.088-1.086 1.967-1.639 2.953-.525.935-.842 1.985-1.469 2.858-.627.873-1.712 1.565-2.764 1.297-.797-.203-1.364-.897-1.755-1.61a7.777 7.777 0 0 1-.83-5.12c.393-2.13 1.665-4.019 2.123-6.135.63-2.907-.327-5.906-.299-8.878-.013-.466.052-.93.191-1.376.24-.679.757-1.22 1.234-1.765.596-.68 1.15-1.396 1.659-2.142.342-.501.806-1.79 1.411-1.897 1.353-.24 2.928 1.871 3.263 2.899Z"/><path fill="#2F2E41" d="M168.551 88.242a8.144 8.144 0 0 0-2.249-.237 5.624 5.624 0 0 0-4.099 2.116 5.543 5.543 0 0 0-1.111 4.453 9.33 9.33 0 0 0 .891 2.418c.596 1.202 1.312 2.4 2.416 3.171a9.425 9.425 0 0 0 2.131 1.007l5.815 2.176c.855.319 1.711.64 2.574.936a50.662 50.662 0 0 0 13.448 2.655c1.395.13 2.801.059 4.176-.21.332-.043.637-.207.855-.459.111-.192.176-.406.191-.627l.358-2.487c.08-.346.069-.707-.031-1.048-.164-.418-.574-.681-.966-.905-3.823-2.18-8.286-3.382-11.503-6.375-.758-.704-1.392-1.82-2.312-2.3-1.044-.542-2.273-.851-3.351-1.351-2.359-1.093-4.677-2.35-7.233-2.933Z"/><path fill="#000" d="M174.635 91.556c2.079.623 10.86 4.937 12.365 6.443-.202.07-7.046-3.596-7.252-3.654a42.703 42.703 0 0 1-5.517-1.858c-.356-.158-2.317-.898-2.228-1.328.1-.486 2.263.287 2.632.397Z" opacity=".1"/><path fill="#A0616A" d="M199.561 107.996a.52.52 0 0 0 .331-.09.448.448 0 0 0 .104-.352l-.01-3.207c-.997-.439-2.112-.58-3.207-.716l-5.106-.631c.117.015-.799 2.035-.658 2.304.247.476 2.139.897 2.672 1.121 1.856.781 3.784 1.639 5.874 1.571Z"/><path fill="#A0616A" d="M184.049 104.467c-.934.152-1.977.286-2.582 1.03-.767.943-.44 2.349-.074 3.517.045.305.209.578.454.757.245.179.55.25.847.195.852.055 1.758.098 2.503-.329.337-.228.662-.475.972-.739a6.16 6.16 0 0 1 1.788-.836 17.69 17.69 0 0 1 3.589-.756 5.48 5.48 0 0 0 1.413-.255c.465-.153.833-.519.996-.989.172-.624-.182-1.26-.523-1.807a7.187 7.187 0 0 0-1.504-1.902c-.922-.733-1.378-.17-2.307.298a19.285 19.285 0 0 1-5.572 1.816Z"/><path fill="#2F2E41" d="m181.337 105.245-5.957-1.803a7.726 7.726 0 0 0-2.217-.44 2.629 2.629 0 0 0-2.036.843c-.462.555-.594 1.314-.709 2.033l-.247 1.54a7.949 7.949 0 0 0-.138 2.364 2.622 2.622 0 0 0 1.184 1.947c.824.461 1.834.236 2.754.043a29.374 29.374 0 0 1 5.646-.62c.713-.008 1.46.001 2.09-.341a2.683 2.683 0 0 0 1.275-2.13c.117-1.315-.311-3.033-1.645-3.436ZM202.412 103.238c.737-.139 1.388-.591 2.095-.858.995-.375 2.073-.375 3.127-.371.387-.038.777.046 1.121.242.464.333.583 1 .662 1.595l.477 3.592c.127.67.14 1.36.038 2.035-.139.665-.56 1.307-1.173 1.479-.744.208-1.473-.304-2.176-.641-1.755-.841-3.797-.626-5.627-1.255a1.271 1.271 0 0 1-.843-.649 1.589 1.589 0 0 1-.065-.621c.031-1.154-.195-2.731.128-3.834.29-.992 1.412-.714 2.236-.714Z"/><path fill="#2F2E41" d="M214.575 86.315a9.997 9.997 0 0 1 3.607-.252c.964.108 1.958.383 2.662 1.068.856.832 1.132 2.12 1.155 3.33a10.573 10.573 0 0 1-2.207 6.645 5.928 5.928 0 0 1-1.261 1.245 8.217 8.217 0 0 1-1.641.81l-12.739 5.151c-3.351 1.355-6.715 2.714-10.21 3.607a.782.782 0 0 1-.618.032.804.804 0 0 1-.453-.43 27.246 27.246 0 0 1-2.792-5.235.358.358 0 0 1 .152-.557l9.01-5.306a9.087 9.087 0 0 0 1.834-1.296c.39-.386.709-.841.942-1.343.187-.4.204-1.344.443-1.64.233-.289 1.032-.312 1.401-.426.521-.163 1.03-.36 1.526-.591 2.016-.924 3.811-2.267 5.743-3.35a14.55 14.55 0 0 1 3.446-1.462Z"/><path fill="#000" d="M209.956 90.95c-1.601 1.12-3.673 2.149-5.26 3.298-.542.392-9.568 5.118-9.696 5.746 1.48.232 10.909-5.91 12.258-6.524 1.35-.612 2.545-1.477 3.731-2.335.302-.218 1.581-.876.714-1.12-.488-.138-1.386.711-1.747.935Z" opacity=".1"/><path fill="#E5D3FF" d="M198.907 52h-13.665c-1.156 0-2.094.957-2.094 2.138v.782H183v1.75h.148v1.226H183v1.05h.148v12.916c0 1.181.938 2.138 2.094 2.138h13.665c1.156 0 2.093-.957 2.093-2.138V54.138c0-1.181-.937-2.138-2.093-2.138Z"/><path fill="#2F2E41" d="m200.667 36.548-7-3.548L184 34.452 182 43l4.979-.185 1.39-3.14v3.088l2.298-.086 1.333-5 .833 5.323 8.167-.161-.333-6.29Z"/><path fill="#A0616A" d="M177.424 85.473a3.69 3.69 0 0 0 1.34 1.297 2.687 2.687 0 0 0 2.304-.06 4.003 4.003 0 0 0 1.662-1.622c.78-1.34.942-2.944.844-4.481-.097-1.537-.434-3.051-.584-4.584-.108-1.115-.117-2.236-.126-3.356a1.091 1.091 0 0 1 .145-.678c.209-.202.478-.333.77-.374 1.574-.456 2.619-1.891 3.369-3.313.5-.95.935-1.988.838-3.05-.096-1.063-.881-2.134-1.972-2.242-.9-.09-1.731.466-2.379 1.079a9.827 9.827 0 0 0-2.987 5.807c-.143 1.08-.102 2.19-.404 3.24-.645 2.24-2.664 3.613-3.67 5.629-1.108 2.221-.496 4.743.85 6.708ZM205.714 77.495a4.12 4.12 0 0 1-2.264 2.27 3.005 3.005 0 0 1-1.968.126 2.215 2.215 0 0 1-1.442-1.346 3.76 3.76 0 0 1-.163-1.01c-.093-1.504-.057-3.053.466-4.457.202-.542.474-1.055.633-1.612a8.402 8.402 0 0 0 .239-1.967l.172-4.102a2.798 2.798 0 0 0-.058-.89c-.172-.593-.704-.979-1.191-1.333-1.178-.854-2.342-1.852-2.913-3.225a2.35 2.35 0 0 1-.201-1.337c.161-.814.948-1.341 1.727-1.519a3.73 3.73 0 0 1 2.98.593 4.051 4.051 0 0 1 1.652 2.656c.077.463.076.936.121 1.403.095.992.397 1.947.586 2.924.465 2.407.224 4.894.683 7.3.385 2.012 1.834 3.325.941 5.526Z"/><circle cx="192.5" cy="60.5" r="1.5" fill="#6E35C1"/><circle cx="5" cy="117" r="5" fill="#2F2E41"/><path fill="#FBBEBE" d="M23.656 131.637 21.111 129 16 130.692l.49 6.308 10.51-.52-3.228-4.676-.116-.167Z"/><circle cx="18" cy="124" r="8" fill="#FBBEBE"/><path fill="#2F2E41" d="M68.606 143s10.252 17.22 12.692 19.805A43.872 43.872 0 0 0 85 166.411s-1.147 3.718-2.974 3.586a8.79 8.79 0 0 1-3.013-.726s-.816-2.066-2.238-2.972c-1.422-.906-13.042-12.078-12.77-15.649.271-3.571 4.601-7.65 4.601-7.65Z"/><path fill="#2F2E41" d="M33 167.284s10.802 8.465 25.483.511l1.265-.94s-2.135 4.849-2.333 6.164c-.23 1.524-5.789 10.453-6.696 10.881-.907.428-1.107.823-1.107.823l3.85 4.277 1.423-1.057s5.55-7.938 7.173-9.391c1.623-1.452 9.357-16.427 9.357-16.427s2.957-5.642-4.423-6.067c-7.379-.424-10.775 1.606-10.775 1.606l-13.096 2.101L33 167.284ZM85.637 165 91 168.907s6.843 2.257 2.628 3.759c-4.215 1.502-15.323 2.046-15.575-.027-.251-2.072.439-5.334.993-5.156.554.179 4.4 1.23 6.59-2.483Z"/><path fill="#2F2E41" d="m54.926 186.596.983 5.398s2.794 5.345-.56 3.687c-3.356-1.659-10.268-7.959-9.247-9.28 1.02-1.321 3.273-2.753 3.502-2.323.229.43 1.922 3.312 5.322 2.518Z"/><path fill="#fff" d="M45 161.235s-7.212 8.508-11.59 6.441c-4.38-2.066-22.293-26.003-20.248-30.427 2.045-4.425 2.731-3.483 2.731-3.483l9.25.864-2.662-4.311s1.243-.924 2.427.373c1.184 1.297 5.938 4.536 7.594 9.111 1.656 4.575 6.518 4.347 6.518 4.347L45 161.235Z"/><path fill="#3F3D56" d="M74 143.581 61.34 157 50 137.007 60.781 124 74 143.581Z"/><path fill="#fff" d="M74 144.254 62.459 156 52 137.899 61.591 126 74 144.254Z"/><path fill="#B3B3B3" d="m61.389 157 .611.548-.392.83L44.165 164l-.165-.647.794-.889L61.389 157Z"/><path fill="#E5D3FF" d="M62 157.188 43.362 163 32 141.587 50.31 137 62 157.188Z"/><path fill="#3F3D56" d="m61 154.406-.827.594L51 139.433l.948-.433L61 154.406ZM59 154.735 51.038 157 42 141.73l7.877-1.73L59 154.735Z"/><path fill="#FBBEBE" d="m37.013 143.667 1.65-.48s9.201-1.069 9.336 1.902c.134 2.97-10.572 1.592-10.572 1.592L36 144.688l1.013-1.021ZM44.916 157l2.141-.984s6.463-3.245 4.609-5.36c-1.854-2.114-7.571 1.558-7.571 1.558L43 153.376 44.916 157Z"/><path fill="#fff" d="M43.043 152.468s3.668 3.594 2.834 4.438c-.835.844-14.522 11.948-17.915 8.395-3.392-3.553-19.922-21.391-13.49-22.92 6.432-1.53 8.131 2.046 8.131 2.046l8.491 14.283 11.95-6.242ZM32.413 141 38 142.917 37.909 147 32 146.355l.413-5.355Z"/><path fill="#000" d="M37 154.336 30.466 158 23 147l7.206 9.061L37 154.336Z" opacity=".2"/><circle cx="14" cy="121" r="10" fill="#2F2E41"/><path fill="#6E35C1" d="M66.835 145 60 134.696 62.898 131 70 141.601 66.835 145Z"/><path fill="#E6E6E6" d="M66.53 149 56 133.63l.52-.63L67 148.406l-.47.594ZM65.53 150 55 134.63l.52-.63L66 149.407l-.47.593ZM64.53 152 54 136.63l.52-.63L65 151.407l-.47.593Z"/><path fill="#2F2E41" d="M19 115h3.094c3.262 0 5.906 2.686 5.906 6h-9v-6Z"/><path fill="#3F3D56" d="m59.795 111.044-.5-.044c-.02.305-.033.611-.05.917L57 111.829 59.355 117 62 112.025l-2.253-.088c.016-.298.03-.596.048-.893ZM75 71.655l.354.345A77.235 77.235 0 0 1 77 69.365L76.659 69A78.02 78.02 0 0 0 75 71.655ZM79 66.595l.458.405A82.519 82.519 0 0 1 82 64.424L81.56 64c-.869.843-1.73 1.716-2.56 2.595ZM83 62.527l.396.473A81.944 81.944 0 0 1 86 60.491L85.624 60A82.616 82.616 0 0 0 83 62.527ZM71 76.71l.41.29c.51-.904 1.044-1.81 1.59-2.69l-.398-.31A75.256 75.256 0 0 0 71 76.71ZM89 57.633l.34.367c.87-.555 1.765-1.1 2.66-1.62l-.32-.38A76.473 76.473 0 0 0 89 57.633ZM68 82.76l.478.24c.484-.92.996-1.842 1.522-2.74l-.467-.26A70.085 70.085 0 0 0 68 82.76ZM62 98.124 61.584 98c-.212.956-.409 1.93-.584 2.897l.42.103c.174-.959.37-1.927.58-2.876ZM94 53.571l.287.429c.888-.536 1.8-1.06 2.713-1.56l-.267-.44c-.92.502-1.839 1.03-2.733 1.571ZM61 105.081l-.54-.081a61.51 61.51 0 0 0-.46 2.941l.544.059c.128-.973.281-1.955.456-2.919ZM65 88.808l.564.192c.452-.933.935-1.87 1.436-2.787L66.447 86A63.718 63.718 0 0 0 65 88.808ZM63 94.853l.679.147c.409-.947.853-1.9 1.321-2.832L64.332 92c-.472.939-.92 1.9-1.332 2.853ZM131.017 43a36.992 36.992 0 0 1 2.979-.07l.004-.925a37.33 37.33 0 0 0-3 .071l.017.924ZM100 50.495l.239.505A67.023 67.023 0 0 1 103 49.517l-.218-.517c-.932.473-1.868.976-2.782 1.495ZM144 43.508c.97.141 1.948.307 2.909.492l.091-.504a65.009 65.009 0 0 0-2.931-.496l-.069.508ZM151 45.397c.955.183 1.919.386 2.865.603l.135-.393a80.093 80.093 0 0 0-2.886-.607l-.114.397ZM157 46.648c.942.42 1.891.875 2.821 1.352l.179-.637c-.936-.481-1.892-.94-2.842-1.363l-.158.648ZM138 42.694c.983.072 1.976.175 2.952.306l.048-.691a49.104 49.104 0 0 0-2.974-.309l-.026.694ZM125 43.376l.061.624c.971-.15 1.96-.276 2.939-.373l-.039-.627c-.986.098-1.983.224-2.961.376ZM112 45.632l.148.368c.94-.224 1.9-.435 2.852-.627l-.127-.373c-.959.193-1.926.406-2.873.632ZM106 48.396l.193.604A60.008 60.008 0 0 1 109 47.614l-.172-.614c-.945.436-1.897.906-2.828 1.396ZM118 44.534l.104.466c.956-.196 1.93-.375 2.896-.53l-.083-.47c-.973.157-1.954.337-2.917.534ZM168 51.603 165.191 47l-.988 2.255c-.239-.119-.477-.24-.716-.355l-.2.512c.234.112.464.23.696.344L163 52l5-.397Z"/></svg>
