<svg xmlns="http://www.w3.org/2000/svg" width="256" height="516" fill="none"><path fill="#301050" d="M253 155.5V40.9C253 18.4 235 .1 212.8.1H44.7C22.5.1 4.5 18.4 4.5 40.9v68H3.3c-1.3 0-2.3 1-2.3 2.3v15.5c0 1.3 1.1 2.3 2.3 2.3h1.2v17.2H3.4c-1.3 0-2.5 1.1-2.5 2.4v32.3c0 1.3 1.1 2.4 2.5 2.4h1.1v10.8h-1c-1.4 0-2.5 1.1-2.5 2.5v32.2c0 1.4 1.1 2.5 2.5 2.5h1v243.6c0 22.5 18 40.8 40.2 40.8h168.1c22.2 0 40.2-18.3 40.2-40.8V215.3c1.2-.2 2.1-1.2 2.1-2.5v-54.9c0-1.1-.9-2.2-2.1-2.4ZM4.5 230.4h-1c-.8 0-1.5-.7-1.5-1.5v-32.2c0-.9.7-1.5 1.5-1.5h1v35.2Zm0-48H3.4c-.8 0-1.5-.6-1.5-1.4v-32.3c0-.8.6-1.4 1.5-1.4h1.1v35.1Zm0-54.3H3.3c-.7 0-1.3-.6-1.3-1.3v-15.5c0-.7.6-1.3 1.3-1.3h1.2v18.1ZM153.3 1.2c-.4 1-1.3 1.7-2.5 1.7h-45.5c-1.1 0-2.1-.7-2.5-1.7h50.5ZM252 475c0 22-17.6 39.8-39.2 39.8H44.7C23 514.8 5.5 497 5.5 475V40.9c0-22 17.6-39.8 39.2-39.8h57.2c.4 1.6 1.8 2.7 3.5 2.7h45.5c1.7 0 3.1-1.2 3.5-2.7h58.4c21.6 0 39.2 17.8 39.2 39.8V475Zm2.1-262.1c0 .7-.5 1.3-1.1 1.5v-57.9c.6.2 1.1.8 1.1 1.5v54.9Z"/><path fill="#301050" d="M212.8 1.2h-58.4c-.4 1.6-1.8 2.7-3.5 2.7h-45.5c-1.7 0-3.1-1.2-3.5-2.7H44.7C23 1.2 5.5 19 5.5 41v434.1c0 22 17.6 39.8 39.2 39.8h168.1c21.6 0 39.2-17.8 39.2-39.8V40.9c0-21.9-17.6-39.7-39.2-39.7Zm30.2 472c0 16.9-13.8 30.6-30.8 30.6H45.3c-17 0-30.8-13.7-30.8-30.6V41.1c0-16.9 13.8-30.6 30.8-30.6h166.9c17 0 30.8 13.7 30.8 30.6v432.1Z"/><path fill="#301050" d="M212.2 10.5H45.3c-17 0-30.8 13.7-30.8 30.6v432.1c0 16.9 13.8 30.6 30.8 30.6h166.9c17 0 30.8-13.7 30.8-30.6V41.1c0-16.9-13.8-30.6-30.8-30.6ZM242 473.2c0 16.3-13.3 29.6-29.8 29.6H45.3c-16.5 0-29.8-13.2-29.8-29.6V41.1c0-16.3 13.3-29.6 29.8-29.6h166.9c16.5 0 29.8 13.2 29.8 29.6v432.1Z"/><path fill="#301050" fill-rule="evenodd" d="M156.2 17.1h-54.9c-5.4 0-9.8 4.4-9.8 9.8s4.4 9.8 9.8 9.8h54.9c5.4 0 9.8-4.4 9.8-9.8s-4.4-9.8-9.8-9.8Zm0 18.5h-54.9c-4.8 0-8.8-3.9-8.8-8.8 0-4.8 3.9-8.8 8.8-8.8h54.9c4.8 0 8.8 3.9 8.8 8.8-.1 4.9-4 8.8-8.8 8.8Z" clip-rule="evenodd"/><rect width="72.5" height="17.6" x="92.5" y="18" fill="#301050" rx="8.8"/></svg>
