<svg xmlns="http://www.w3.org/2000/svg" width="24" height="24" viewBox="0 0 24 24"><path fill-rule="evenodd" d="M8.686 5.272c-1.702.167-3.14 1.428-3.568 3.13-.149.593-.158 1.495-.022 2.335.063.386.227 1.01.365 1.394.265.733.78 1.665 1.28 2.313.964 1.253 2.275 2.336 3.743 3.094.418.215.949.43 1.163.47.259.048.483.037.616-.03.152-.079.208-.19.208-.418 0-.317-.13-.462-.44-.491-.686-.065-2.174-.924-3.261-1.882-1.818-1.602-2.806-3.597-2.808-5.67 0-.346.01-.496.055-.707a3.25 3.25 0 0 1 .57-1.294 3.187 3.187 0 0 1 1.062-.92 3.036 3.036 0 0 1 2.833-.033c.388.193.681.434 1.127.928.189.21.31.268.487.236.082-.015.134-.056.284-.222.484-.54.782-.781 1.217-.984a3.072 3.072 0 0 1 2.355-.107c.768.28 1.398.854 1.755 1.6.246.507.331.897.33 1.507-.003.601-.063 1.035-.242 1.746-.106.42-.11.492-.032.645.084.169.484.281.66.188.135-.072.193-.18.297-.557.316-1.154.369-2.38.137-3.218a4.13 4.13 0 0 0-1.088-1.88c-.958-.955-2.254-1.362-3.601-1.133-.689.118-1.48.511-1.984.985L12 6.47l-.137-.13c-.832-.793-1.994-1.184-3.177-1.068Zm8.453 8.014a1.956 1.956 0 0 0-.529.273c-.153.119-.444.41-1.632 1.625-1.277 1.307-1.186 1.168-1.305 1.985-.095.658-.099.814-.023 1.02.077.209.293.429.5.507.2.077.364.073.993-.022.803-.121.685-.042 1.924-1.28l1.076-1.078c.122-.121.49-.534.561-.628.277-.369.365-.822.236-1.21-.162-.48-.608-.952-1.09-1.15-.136-.056-.557-.081-.711-.042Zm.492 1.03c.17.125.373.369.391.47.026.143-.004.21-.174.397l-.159.172-.097-.05a1.695 1.695 0 0 1-.608-.625l-.055-.105.102-.091c.303-.27.418-.302.6-.167Zm-1.194 1.273c.13.156.385.392.492.455.04.023-.06.135-.726.814l-.774.786-.428.062a7.25 7.25 0 0 1-.433.057c-.008-.008.088-.709.112-.828.012-.058.217-.285.777-.857.749-.765.761-.777.8-.717.022.033.102.135.18.228Z" clip-rule="evenodd"/></svg>
