<svg xmlns="http://www.w3.org/2000/svg" width="24" height="24" viewBox="0 0 24 24"><path fill-rule="evenodd" d="M5.994 5.994c.9-.9 2.247-1.244 3.983-1.244h4.046c1.736 0 3.083.344 3.983 1.244.9.9 1.244 2.247 1.244 3.983v4.046c0 1.736-.344 3.083-1.244 3.983-.9.9-2.247 1.244-3.983 1.244H9.977c-1.736 0-3.083-.344-3.983-1.244-.9-.9-1.244-2.247-1.244-3.983V9.977c0-1.736.344-3.083 1.244-3.983Zm.715.715c-.617.618-.947 1.632-.947 3.268v4.046c0 1.636.33 2.65.947 3.268.618.617 1.632.947 3.268.947h4.046c1.636 0 2.65-.33 3.268-.947.617-.618.947-1.632.947-3.268V9.977c0-1.636-.33-2.65-.947-3.268-.618-.617-1.632-.947-3.268-.947H9.977c-1.636 0-2.65.33-3.268.947Z" clip-rule="evenodd"/><path fill="#000" fill-rule="evenodd" d="M15.46 9.92c.22.172.26.49.09.71l-1.562 2.014c-.4.508-1.14.6-1.657.201l-.003-.002-1.232-.97a.171.171 0 0 0-.24.031l-1.605 2.084a.506.506 0 0 1-.801-.617l1.605-2.084a1.183 1.183 0 0 1 1.66-.213l.004.002 1.232.97a.176.176 0 0 0 .243-.028l1.556-2.007a.506.506 0 0 1 .71-.09Z" clip-rule="evenodd"/></svg>
