<svg xmlns="http://www.w3.org/2000/svg" width="24" height="24" viewBox="0 0 24 24"><path fill-rule="evenodd" d="M13.371 5.347c.825.277 1.39 1.172 1.207 2.034l-.335 2.12c-.013.093.015.144.04.172a.177.177 0 0 0 .134.056h2.7c.644 0 1.21.258 1.556.721.346.466.422 1.075.206 1.68l-1.613 4.856c-.139.528-.488.965-.904 1.266-.421.305-.946.498-1.472.498h-2.566c-.25 0-.55-.04-.83-.12-.258-.072-.56-.195-.784-.402L8.64 16.64l.62-.792 2.117 1.623.023.023c.045.044.166.115.372.173.192.054.399.08.553.08h2.565c.283 0 .603-.107.874-.304.27-.196.458-.454.525-.72l.004-.017 1.63-4.907c.119-.33.06-.586-.065-.754-.128-.171-.371-.314-.74-.314h-2.7a1.179 1.179 0 0 1-1.177-1.374v-.006l.34-2.155.004-.015c.075-.333-.164-.761-.543-.886l-.009-.003-.009-.003a.764.764 0 0 0-.501.013.774.774 0 0 0-.385.263v.002l-2.769 4.076-.84-.56 2.767-4.074c.209-.31.546-.535.898-.655.353-.12.776-.153 1.177-.007Z" clip-rule="evenodd"/><path fill="#000" fill-rule="evenodd" d="M6.17 9.078c-.066.06-.157.206-.157.617v6.55c0 .41.09.556.157.616.077.07.253.152.686.152h.676c.433 0 .609-.082.686-.152.066-.06.157-.206.157-.617V9.695c0-.411-.09-.556-.157-.617-.077-.07-.253-.151-.686-.151h-.676c-.433 0-.609.08-.686.15Zm-.686-.737c.362-.33.861-.417 1.372-.417h.676c.51 0 1.01.086 1.372.417.373.34.484.83.484 1.354v6.55c0 .523-.111 1.013-.484 1.353-.362.331-.861.417-1.372.417h-.676c-.51 0-1.01-.086-1.372-.417-.373-.34-.484-.83-.484-1.354V9.695c0-.524.111-1.014.484-1.354Z" clip-rule="evenodd"/></svg>
