<svg xmlns="http://www.w3.org/2000/svg" width="24" height="24" viewBox="0 0 24 24"><path fill-rule="evenodd" d="M17.795 6.204c-.436-.437-1.31-.641-2.68-.185L8.67 8.17c-1.052.35-1.801.746-2.277 1.14-.478.394-.63.741-.63 1.01 0 .267.152.614.63 1.008.475.392 1.225.786 2.276 1.136l1.914.638c.151.05.27.169.32.32l.638 1.914c.35 1.051.744 1.8 1.137 2.276.395.478.742.63 1.01.63.27 0 .616-.152 1.01-.63.394-.476.788-1.225 1.138-2.276l2.148-6.447c.453-1.368.25-2.246-.188-2.684Zm.717-.715c.833.834.937 2.193.433 3.717v.001l-2.15 6.447c-.371 1.117-.815 1.994-1.317 2.602-.5.606-1.106.997-1.79.997-.685 0-1.29-.39-1.792-.997-.502-.608-.945-1.485-1.317-2.602l-.557-1.673-1.673-.558c-1.117-.371-1.994-.814-2.602-1.315-.606-.5-.997-1.106-.997-1.79 0-.684.39-1.29.997-1.79.608-.502 1.484-.947 2.6-1.32l6.449-2.15c1.524-.508 2.882-.404 3.716.43Z" clip-rule="evenodd"/><path fill="#000" fill-rule="evenodd" d="M13.642 10.17a.506.506 0 0 1 .001.716l-2.718 2.726a.506.506 0 1 1-.717-.715l2.718-2.726a.506.506 0 0 1 .716-.001Z" clip-rule="evenodd"/></svg>
