<svg xmlns="http://www.w3.org/2000/svg" width="24" height="24" viewBox="0 0 24 24"><path fill-rule="evenodd" d="M5.98 6.147c.89-.89 2.22-1.23 3.937-1.23h1.333a.5.5 0 0 1 0 1H9.917c-1.618 0-2.62.327-3.23.937-.61.61-.937 1.613-.937 3.23v4c0 1.618.327 2.62.937 3.23.61.61 1.612.937 3.23.937h4c1.617 0 2.62-.327 3.23-.937.61-.61.936-1.612.936-3.23v-1.333a.5.5 0 0 1 1 0v1.333c0 1.716-.34 3.047-1.23 3.937-.89.89-2.22 1.23-3.936 1.23h-4c-1.716 0-3.048-.34-3.937-1.23-.89-.89-1.23-2.22-1.23-3.937v-4c0-1.716.34-3.047 1.23-3.937Z" clip-rule="evenodd"/><path fill="#000" fill-rule="evenodd" d="M16.048 4.76c.742-.073 1.478.253 2.209.984.73.731 1.057 1.467.984 2.21-.07.715-.502 1.309-.984 1.79l-5.26 5.26c-.15.145-.346.272-.535.367-.188.095-.41.178-.621.208l-2.007.287h-.002c-.495.068-.969-.067-1.3-.397-.333-.332-.47-.805-.397-1.303v-.001l.286-2.003c.03-.214.114-.439.209-.628.095-.19.224-.388.373-.537l5.253-5.253c.482-.482 1.076-.914 1.792-.984Zm.098.995c-.371.037-.758.271-1.182.696L9.71 11.704c-.05.051-.122.15-.187.279a1.127 1.127 0 0 0-.111.317v.002l-.287 2.006v.002c-.034.229.033.372.112.45.08.08.226.147.457.116h.001l2.004-.287c.069-.01.184-.046.314-.112.127-.063.23-.135.287-.19l5.25-5.25c.424-.424.66-.81.696-1.182.034-.344-.094-.801-.696-1.404-.603-.602-1.06-.73-1.405-.696Z" clip-rule="evenodd"/><path fill="#000" fill-rule="evenodd" d="M13.722 6.37a.5.5 0 0 1 .616.346 4.263 4.263 0 0 0 2.948 2.947.5.5 0 0 1-.272.962 5.263 5.263 0 0 1-3.639-3.64.5.5 0 0 1 .347-.616Z" clip-rule="evenodd"/></svg>
